<?xml version="1.0" encoding="UTF-8"?>
<!DOCTYPE svg PUBLIC "-//W3C//DTD SVG 1.1//EN" "http://www.w3.org/Graphics/SVG/1.1/DTD/svg11.dtd">
<!-- Creator: CorelDRAW -->
<svg xmlns="http://www.w3.org/2000/svg" xml:space="preserve" width="0.7in" height="0.7in" version="1.1" style="shape-rendering:geometricPrecision; text-rendering:geometricPrecision; image-rendering:optimizeQuality; fill-rule:evenodd; clip-rule:evenodd"
     viewBox="0 0 1706.66 1706.66"
     xmlns:xlink="http://www.w3.org/1999/xlink"
     xmlns:xodm="http://www.corel.com/coreldraw/odm/2003">
 <defs>
  <style type="text/css">
   <![CDATA[
    .fil0 {fill:black}
   ]]>
  </style>
 </defs>
    <g id="Layer_x0020_1">
  <metadata id="CorelCorpID_0Corel-Layer"/>
        <path class="fil0" d="M942.74 1706.14c-23.78,0 -47.31,-4.27 -69.4,-12.5l0 -186.65c99.3,0 101.39,8.89 101.39,-38.19l177.61 0c11.04,0 20,-8.96 19.99,-20l0 -212.63 115.43 0c11.03,0 20,-8.96 20,-20l0 -257.76 222.37 0c-15.68,32.52 -40.46,61.25 -73.78,81.9 127.46,109.91 68.83,319.17 -96.62,346.52 11.96,134.04 -109.83,240.45 -240.5,211.86 -33.89,65.81 -101.39,107.45 -176.48,107.45zm284.03 -1105.74c-57.37,-18.37 -50.71,-115.69 20.01,-115.69 70.76,0 77.42,97.37 19.98,115.7l0 101.89c0.02,11.04 -8.95,20 -19.98,20l-81.39 0 0 63.33c0,11.04 -8.97,20 -20,20l-115.41 0 0 112.77 514.4 0c14.28,-59.35 1.42,-124.83 -41.62,-175.3 99.12,-116.2 33.1,-296.16 -115.16,-323.78 -0.29,-173.75 -161.85,-302.46 -331.15,-264.67 -37.39,-95 -108.86,-146.38 -183.12,-154.18l0 303.37 167.9 0c11.04,0 20,8.96 20,20l0 164.02 84.16 0c11.04,0 20,8.96 20,20l0 174.44 61.37 0 0 -81.9zm20.01 -75.7c-25.44,0 -25.46,38.68 0,38.68 25.48,0 25.44,-38.68 0,-38.68zm20.97 433.7l0 237.76 -27.7 0 0 -81.36c0,-11.03 -8.96,-20 -20,-20l-102.78 0c-6.88,-21.69 -25.37,-39.36 -55.49,-39.36 -78.1,0 -78.11,118.68 0,118.68 30.11,0 48.59,-17.64 55.48,-39.31l82.78 0 0 61.36c-31.19,0 -67.73,-6.87 -67.73,20l0 212.63 -157.61 0 0 -43.68c57.4,-18.35 50.71,-115.71 -20,-115.71 -70.74,0 -77.42,97.36 -20,115.71l0 81.87 -61.39 0 0 -810.66 85.75 0c6.89,21.69 25.38,39.33 55.49,39.33 78.1,0 78.11,-118.66 0,-118.66 -30.11,0 -48.61,17.65 -55.49,39.33l-85.75 0 0 -272.49 147.9 0 0 164.02c0,11.04 8.96,20 20,20l84.16 0 0 237.77 -115.41 0c-11.03,0 -20,8.96 -20,20l0 152.77c0,11.03 8.98,20 20,20l257.76 0zm-313.03 351c-25.46,0 -25.47,38.68 0,38.68 25.45,0 25.44,-38.68 0,-38.68zm107.07 -213.95c-25.46,0 -25.47,38.68 0,38.68 25.45,0 25.44,-38.68 0,-38.68zm-47.22 -478.45c-25.44,0 -25.46,38.68 0,38.68 25.48,0 25.44,-38.68 0,-38.68zm-181.23 1076.65c-92.43,34.55 -199.09,-4.12 -245.89,-94.96 -130.45,28.55 -252.37,-77.5 -240.5,-211.85 -165.45,-27.41 -224.09,-236.56 -96.62,-346.53 -103.22,-63.93 -124.69,-205.43 -46.44,-297.2 -99.07,-116.14 -33.15,-296.12 115.18,-323.78 0.28,-173.7 161.76,-302.45 331.16,-264.67 37.41,-95 108.86,-146.37 183.12,-154.19l0 1693.17zm-282.56 -950.52c-4.21,0 -41.58,-6.96 -75.44,-37.07 -29.13,-25.91 -60.39,-74.1 -48.5,-158.22 -40.27,-26.71 -64.45,-66.02 -73.8,-92.67 -8.67,-24.72 28.76,-38.1 37.72,-13.29 0.24,0.64 23.61,64.19 85.73,86.86 50.43,18.39 113.25,6.06 186.72,-36.72 22.78,-13.24 42.87,21.32 20.12,34.57 -72.92,42.48 -149.66,64.74 -218.42,40.33 -3.93,47.2 8.46,83.88 37,109.26 37.85,33.66 73.92,21.12 68.53,50.54 -1.77,9.66 -10.19,16.42 -19.66,16.42zm-94.13 513.04c-15.29,-116.89 54.51,-180.68 120.55,-193.05 25.62,-4.8 33.33,34.37 7.28,39.33 -10.71,2.07 -98.18,22.51 -89.61,135.09 61.05,-20.13 133.51,-6.2 215.45,41.52 22.74,13.22 2.66,47.83 -20.12,34.57 -73.47,-42.76 -136.31,-55.09 -186.72,-36.72 -78.62,28.65 -76.28,100.15 -104.62,100.15 -44.85,0 -5.07,-79.69 57.8,-120.89zm73.61 -274.88c-8.22,0 -15.91,-5.11 -18.83,-13.29 -46.11,-129.46 -144.02,-99.76 -155.03,-95.97 -24.85,8.57 -37.98,-28.95 -13.36,-37.71 69.49,-24.72 165.04,5 206.06,120.24 4.63,13.02 -5.19,26.73 -18.83,26.73zm92.48 -604.7c-9.91,0 -122.37,-10.5 -103.51,-50.18 4.75,-9.97 16.69,-14.19 26.64,-9.48 124.15,58.97 172.4,-31.28 177.48,-41.76 11.44,-23.6 47.3,-6.46 36.11,17.22 -18.53,39.2 -68.79,84.21 -136.72,84.21zm121.21 1168.4c-8.22,0 -15.92,-5.11 -18.83,-13.29 -46.1,-129.44 -144,-99.76 -155.04,-95.97 -24.89,8.53 -37.96,-28.96 -13.36,-37.71 69.52,-24.72 165.04,5.01 206.06,120.24 4.63,13.02 -5.19,26.73 -18.83,26.73z"/>
 </g>
</svg>
